inDegrees=no
num_controls=7
num_derivatives=13
num_iterations=107
num_multipliers=7
num_parameters=0
num_slacks=7
num_states=26
objective=0.430850
objective_accelerations=0.001982
objective_balance=0.001713
objective_effort=0.003686
objective_height=0.402994
objective_ligament=0.020476
solver_duration=1380.129339
status=Solve_Succeeded
success=true
DataType=double
version=3
OpenSimVersion=4.5
endheader
time	/jointset/ground_pelvis/pelvis_tilt/value	/jointset/ground_pelvis/pelvis_tx/value	/jointset/ground_pelvis/pelvis_ty/value	/jointset/hip_l/hip_flexion_l/value	/jointset/hip_l/hip_adduction_l/value	/jointset/hip_l/hip_rotation_l/value	/jointset/back/lumbar_extension/value	/jointset/patellofemoral_l/patellar_flexion_l/value	/jointset/knee_l/knee_flexion_l/value	/jointset/knee_l/knee_adduction_l/value	/jointset/knee_l/knee_rotation_l/value	/jointset/ankle_l/ankle_angle_l/value	/jointset/subtalar_l/subtalar_angle_l/value	/jointset/ground_pelvis/pelvis_tilt/speed	/jointset/ground_pelvis/pelvis_tx/speed	/jointset/ground_pelvis/pelvis_ty/speed	/jointset/hip_l/hip_flexion_l/speed	/jointset/hip_l/hip_adduction_l/speed	/jointset/hip_l/hip_rotation_l/speed	/jointset/back/lumbar_extension/speed	/jointset/patellofemoral_l/patellar_flexion_l/speed	/jointset/knee_l/knee_flexion_l/speed	/jointset/knee_l/knee_adduction_l/speed	/jointset/knee_l/knee_rotation_l/speed	/jointset/ankle_l/ankle_angle_l/speed	/jointset/subtalar_l/subtalar_angle_l/speed	/forceset/tau_hip_flexion_l	/forceset/tau_hip_adduction_l	/forceset/tau_hip_rotation_l	/forceset/tau_knee_flexion_l	/forceset/tau_ankle_angle_l	/forceset/tau_subtalar_angle_l	/forceset/tau_lumbar_extension	lambda_cid13_p0	lambda_cid13_p1	lambda_cid13_p2	lambda_cid13_p3	lambda_cid13_p4	lambda_cid13_p5	lambda_cid14_p0	/jointset/ground_pelvis/pelvis_tilt/accel	/jointset/ground_pelvis/pelvis_tx/accel	/jointset/ground_pelvis/pelvis_ty/accel	/jointset/hip_l/hip_flexion_l/accel	/jointset/hip_l/hip_adduction_l/accel	/jointset/hip_l/hip_rotation_l/accel	/jointset/back/lumbar_extension/accel	/jointset/patellofemoral_l/patellar_flexion_l/accel	/jointset/knee_l/knee_flexion_l/accel	/jointset/knee_l/knee_adduction_l/accel	/jointset/knee_l/knee_rotation_l/accel	/jointset/ankle_l/ankle_angle_l/accel	/jointset/subtalar_l/subtalar_angle_l/accel	gamma_cid13_p0	gamma_cid13_p1	gamma_cid13_p2	gamma_cid13_p3	gamma_cid13_p4	gamma_cid13_p5	gamma_cid14_p0
0	0.08139614510028549	0.09154640133144176	0.9098901285875114	0.1266922784136757	-0.295122900517341	-0.2760012389630753	-0.2144969558742783	0.2051545070141879	0.2051545070141877	-0.01786399395540423	-0.1745329055959568	0.09024313228550125	0.1620147905109259	0	0	0	0	0	0	0	0	0	0	0	0	0	0.08352023764366974	0.007784164743804617	-0.002387509735607231	-0.2220568047247324	0.1856524356568453	-0.07163123914452903	-0.01301837945358539	26.78285832939099	29.88966962940387	-9.009480916832588	-22.26542472256294	-462.7251530912099	-35.77568505066893	-25.76839567723682	-0.4676617486405078	0.4279836541999307	-0.009403961360560717	-0.06442126738800777	0.05326957039731869	-0.1292582149591131	-0.09567300999606085	-0.07475522356810317	-0.07475522356810219	0.1169420283342581	0.004896664871104498	0.4928206047004406	0.2439324763091658	2.472262459087388e-10	3.131775253194304e-09	-1.619613223724568e-09	2.992188401716875e-10	3.441700311430837e-09	4.984074244192761e-09	2.010611818247534e-10
0.01	0.08137307621688229	0.09156741914525866	0.9098896617420141	0.1266892777404559	-0.2951201755216091	-0.2760075735679606	-0.2145013673213279	0.2051508696308912	0.2051508696308574	-0.01785801468956671	-0.1745326057239699	0.09026736945972784	0.162026904344248	-0.004576578452358009	0.004166409517847642	-9.228263041426099e-05	-0.000591694839743574	0.0005480405712948804	-0.001264901758751064	-0.0008514235055815311	-0.0007260839327117355	-0.0007260839327116722	0.001200792994292996	5.559371556514757e-05	0.004803833134740518	0.002410043746563466	0.08195616758161946	0.007046783190010219	-0.002411678128487618	-0.2187988345656235	0.1802530463696561	-0.06949513169961381	-0.01198275138910754	25.22071511840769	29.00369120887626	-8.60347532222633	-21.01756455902737	-462.6635676802684	-37.21568675242263	-25.76835621908855	-0.447076172727122	0.405396673572271	-0.008976755188321113	-0.05527759626645984	0.05602767007848047	-0.1248030033311434	-0.07524713520824351	-0.07132610874321471	-0.07132610874322694	0.1223890469189276	0.005233360326207893	0.4676245248849755	0.2376315829907931	1.82118267964199e-10	3.082667362971885e-09	-1.65900436950282e-09	2.996416013860867e-10	2.700002158594164e-09	4.919557098696801e-09	2.018032567866299e-10
0.02	0.08130535749311814	0.09162898646885291	0.9098883048019514	0.126680613318034	-0.295111878846248	-0.2760264965598318	-0.2145133670263074	0.2051400131821039	0.2051400131821035	-0.01783987927142222	-0.1745318813877969	0.09033833693670745	0.1620627368668679	-0.008929968072462255	0.008109901955470232	-0.000178018913089509	-0.001132749839445286	0.001114335925907174	-0.00251767739743016	-0.001517651585922585	-0.001443813090243874	-0.001443813090243782	0.002431230466269111	8.489284820948147e-05	0.00934606055044571	0.00474373785956068	0.08039209751949683	0.00630940163621405	-0.002435846521036249	-0.2155408644065467	0.1748536570824544	-0.06735902425470933	-0.01094712332467627	23.65858282890686	28.11908317760475	-8.199255694553052	-19.78689263893425	-462.6046980048761	-38.6528337522246	-25.76823872533226	-0.423023982189757	0.3834002381549134	-0.008094691812758818	-0.05429329937962384	0.05692052706079827	-0.1268329909447593	-0.05863392494797368	-0.07308426853218183	-0.07308426853218769	0.1228709238708796	-0.0003622517131017845	0.440499460893367	0.2286625495959092	1.170102900196592e-10	3.033559472749466e-09	-1.698395515281073e-09	3.000643626004859e-10	1.958304005757491e-09	4.855039953200841e-09	2.025453317485064e-10
0.03	0.08119504193756683	0.09172900852409993	0.9098861176021159	0.1266667586949215	-0.295097871010974	-0.2760578889594572	-0.2145312532804591	0.2051219439401787	0.2051219439402173	-0.01780940056058929	-0.1745309729852687	0.09045352562150091	0.1621215178366761	-0.01311409068878754	0.01187073845346957	-0.0002588893545548467	-0.001632692497626674	0.001685949318417005	-0.003757172124851428	-0.002043372405010409	-0.002176403438109076	-0.002176403438109137	0.003658289075801915	9.64438500444933e-05	0.01365862836463743	0.006998943017727252	0.07943329634635991	0.007847599028076304	-0.00247139344394998	-0.2134953025510886	0.1720978678672133	-0.06780633129253154	-0.01031842843746898	22.73613776929917	28.35264386960142	-8.096889080139739	-19.01871588687651	-462.5718897281834	-37.88690436248602	-25.7680502296953	-0.4132485593531289	0.368859819537473	-0.008003076732351436	-0.04702239682531589	0.05708967952749099	-0.1219628725960179	-0.04710713449137752	-0.07430168045895623	-0.07430168045900047	0.1216900447881306	0.001861928452507938	0.4216783338487025	0.2219222615251242	9.934211035402692e-11	2.912915554450799e-09	-1.668938302505373e-09	3.092435428139413e-10	1.756648257487657e-09	4.68413446767052e-09	1.999892066216813e-10
0.04	0.08104345672425427	0.09186592583710981	0.9098831377265819	0.1266480691156651	-0.2950781854549387	-0.2761015673381462	-0.2145539099376224	0.2050963577423024	0.2050963577423026	-0.01776683792057383	-0.1745299594422218	0.09061084856287034	0.1622024454105858	-0.01718389962508372	0.01548895350803939	-0.0003365540527765479	-0.002099741067328736	0.002249880078185774	-0.004974873210480835	-0.002471732188183513	-0.002947204287785145	-0.002947204287785336	0.004848016297080848	0.0001059209447019929	0.017772911865494	0.009173058679817421	0.078474495173147	0.009385796419930367	-0.002506940367179127	-0.211449740695671	0.1693420786519597	-0.06825363833036335	-0.009689733550309077	21.81357456742651	28.58750352293021	-7.996189647165591	-18.26583424942875	-462.5428312577475	-37.11843141566549	-25.76779513397895	-0.400161246183933	0.354875949468997	-0.007453543164032277	-0.04771448168374613	0.05538400051258046	-0.1224742625864426	-0.03916171776503618	-0.08072636889435066	-0.08072636889435164	0.1154046462201003	-0.0007770331486659986	0.400842598226325	0.2124446503806184	8.265207085909373e-11	2.790796666501076e-09	-1.638061535945055e-09	3.186032677490268e-10	1.566127404157346e-09	4.511035408118872e-09	1.97365077369316e-10
0.05	0.08085174048615598	0.09203833047695488	0.9098793952747147	0.1266248657079434	-0.2950528960838477	-0.2761573359389318	-0.2145803574696697	0.2050628891557386	0.2050628891557479	-0.01771254966715352	-0.1745288804684846	0.09080835617819406	0.1623047257802278	-0.02114091480591	0.01896998115820666	-0.0004115771890116358	-0.002535793245507555	0.002807608238275671	-0.006175366529368227	-0.002800727400224338	-0.003751145966531145	-0.003751145966531026	0.006005982686099448	0.0001099462188192303	0.02169898217752749	0.01127187630124999	0.07752389582532479	0.009938091749471856	-0.002530005581440754	-0.2094201923654757	0.1662964723301884	-0.0678213767765635	-0.009065338362936347	20.87000406192756	28.43616437542822	-7.824918268849378	-17.54410178333308	-462.5055968594612	-37.16847637731669	-25.76747601609834	-0.390706678101474	0.3414172411317223	-0.007472517421212702	-0.0407784889749644	0.05590954564247844	-0.1183145350985017	-0.02721139975915864	-0.08092304811320612	-0.08092304811318558	0.1154449699014596	0.001002904439019537	0.3840449822560384	0.2069292332844545	5.965003985485531e-11	2.901388687360428e-09	-1.720751741819764e-09	3.446702742605778e-10	1.492276843882164e-09	4.707043807849383e-09	2.01247771036991e-10
0.06	0.0806210070914372	0.09224488560696968	0.9098749134277716	0.126597456197816	-0.2950220409667803	-0.2762250050066178	-0.2146095835492056	0.2050212421562427	0.2050212421562435	-0.01764679128290623	-0.1745277591226495	0.09104423564355008	0.1624276601091363	-0.02498733094952135	0.02231905154198451	-0.0004844330679491075	-0.002940961547292446	0.003363029273773889	-0.007354966590601498	-0.003027441685684857	-0.00458288687521597	-0.004582886875215539	0.007142042461468515	0.0001143953628176439	0.02544728187212849	0.01330385053307824	0.07657329647742038	0.01049038707902909	-0.002553070795764153	-0.2073906440353155	0.1632508660084123	-0.067389115222747	-0.008440943175627522	19.92630722693945	28.28587291630985	-7.654985362212928	-16.83644915927057	-462.4731643016366	-37.21676860599204	-25.76709461158349	-0.3780414387409423	0.3284844961910992	-0.007020091704509637	-0.04153770640494749	0.05492257559424035	-0.1182956110556703	-0.01870553244897947	-0.08628621488211057	-0.08628621488211151	0.1110233234901901	-0.0006922591724895168	0.3652884747398104	0.1990759724597437	3.638224078706721e-11	3.0217790622749e-09	-1.808223714954894e-09	3.714407452595589e-10	1.423338716998776e-09	4.918593574286511e-09	2.054044361960361e-10
